<svg xmlns="http://www.w3.org/2000/svg" width="43" height="43" viewBox="0 0 43 43">
  <path fill="#FFF" fill-rule="evenodd" d="M44.29,16.6360424 L25.29,3.08204238 C22.92,1.39004238 19.86,0.00604237797 18.49,0.00604237797 C17.2218018,-0.0846834236 16.1144747,0.856766999 16,2.12304238 C16,3.28704238 17.45,6.08704238 19.22,8.34304238 L33.64,26.7240424 L44.29,16.6360424 Z M47.79,19.1360424 L46.74,18.3850424 L35.47,29.0590424 L36.4,30.2500424 C37.2120535,31.3227897 38.4513209,31.9883471 39.7941066,32.0728715 C41.1368923,32.157396 42.4498368,31.6524928 43.39,30.6900424 L48.34,25.8750424 C49.3235891,24.9864109 49.8372212,23.6903926 49.7294106,22.3692225 C49.6216,21.0480525 48.9046459,19.8524529 47.79,19.1350424 L47.79,19.1360424 Z M52.57,28.9610424 C51.0273758,28.8113667 49.4769025,29.1529608 48.14,29.9370424 L48.11,29.9050424 C48.05,29.9490424 48,30.0050424 47.94,30.0550424 C47.88,30.1050424 47.8,30.1280424 47.74,30.1710424 L47.76,30.2040424 C46.6191448,31.176358 45.8432556,32.508066 45.56,33.9800424 C43.94,41.1720424 56.89,42.3220424 56.89,42.3220424 C57.04634,42.3080141 57.1988231,42.2656577 57.34,42.1970424 L57.44,42.3300424 C57.4916337,42.2669942 57.5384334,42.2001375 57.58,42.1300424 C57.661228,42.1123676 57.7413625,42.0899967 57.82,42.0630424 L57.71,41.9300424 C57.8141459,41.8217514 57.8987315,41.6962265 57.96,41.5590424 C57.96,41.5590424 60.32,29.4440424 52.57,28.9600424 L52.57,28.9610424 Z" transform="matrix(-1 0 0 1 58.298 0)"/>
</svg>