<svg xmlns="http://www.w3.org/2000/svg" width="46" height="46" viewBox="0 0 46 46">
  <path fill="#FFF" d="M48,0 C35.302974,0 25,10.302974 25,23 C25,35.697026 35.302974,46 48,46 C60.697026,46 71,35.697026 71,23 C71,10.302974 60.697026,0 48,0 Z M48,6 C55.3878628,6 61.6358839,11.0408922 64,18 L32,18 C34.3641161,11.0408922 40.6121372,6 48,6 Z M48,26 C46.3432836,26 45,24.6567164 45,23 C45,21.3432836 46.3432836,20 48,20 C49.6567164,20 51,21.3432836 51,23 C51,24.6567164 49.6567164,26 48,26 Z M31,23 C38.6666667,23 44.875,30.5793451 45,40 C37.0833333,38.5869018 31,31.5214106 31,23 Z M51,40 C51.125,30.5793451 57.3333333,23 65,23 C64.9583333,31.5214106 58.9166667,38.5869018 51,40 Z" transform="translate(-25)"/>
</svg>